<?xml version="1.0" encoding="utf-8"?>
<svg viewBox="0 0 500 500" xmlns="http://www.w3.org/2000/svg">
  <path class="cls-1" d="M 193.987 257.801 C 194.297 258.361 194.837 258.901 194.867 259.471 C 195.797 275.131 204.707 286.921 214.117 298.271 C 225.347 311.811 239.907 320.701 256.697 325.611 C 273.711 330.688 291.907 330.144 308.587 324.061 C 329.017 316.891 344.057 303.821 353.927 285.111 C 364.267 265.511 365.527 244.821 357.927 223.741 C 350.327 202.661 335.337 188.211 316.057 178.161 C 296.547 167.981 275.777 166.401 254.547 172.431 C 247.657 174.431 240.827 176.551 233.027 177.821 C 234.377 176.231 235.417 173.991 237.127 173.161 C 254.617 164.651 272.947 160.161 292.497 163.161 C 313.497 166.361 332.127 174.701 346.627 190.481 C 367.987 213.701 375.317 240.901 367.627 271.721 C 361.517 296.181 346.627 314.161 324.927 326.271 C 308.304 335.755 289.03 339.528 270.057 337.011 C 241.137 333.161 218.157 318.881 202.797 293.761 C 196.867 284.061 192.417 273.481 191.667 261.821 C 191.577 260.451 192.207 259.031 192.507 257.641 L 193.987 257.801 Z" style="fill: rgb(255, 255, 255);"/>
  <path class="cls-1" d="M 194.057 250.181 C 182.357 261.931 160.657 270.311 143.927 261.821 C 136.957 258.271 129.447 255.491 121.247 259.271 L 120.667 258.071 C 121.83 256.494 123.121 255.015 124.527 253.651 C 137.807 242.581 152.927 241.031 169.197 244.981 C 177.437 246.981 185.777 248.541 194.077 250.301 L 194.057 250.181 Z" style="fill: rgb(255, 255, 255);"/>
  <path class="cls-1" d="M 194.057 250.271 C 197.717 240.631 201.337 230.771 212.057 226.751 C 222.397 222.881 226.517 214.221 230.137 204.971 C 230.477 204.091 230.797 203.211 231.397 201.621 C 232.137 202.841 232.767 203.421 232.827 204.051 C 233.717 213.661 234.907 223.311 231.357 232.661 C 225.057 249.411 209.127 256.111 194.057 250.181 L 194.057 250.271 Z" style="fill: rgb(255, 255, 255);"/>
  <path d="M 169.947 226.751 C 170.007 218.451 176.947 211.961 185.497 212.111 C 193.697 212.261 199.887 219.011 199.687 227.551 C 199.535 235.725 192.864 242.272 184.687 242.271 C 177.447 242.171 168.917 235.541 169.947 226.751 Z" style="fill: rgb(255, 255, 255);"/>
</svg>