<svg id="Layer_1" data-name="Layer 1" xmlns="http://www.w3.org/2000/svg" viewBox="0 0 299 298"><defs><style>.cls-1{fill:#fff;}.cls-2{fill:#008a2e;}</style></defs><path class="cls-1" d="M0,298V0H299V298ZM84,160c-8.3-1.76-16.64-3.32-24.88-5.32-16.27-3.95-31.39-2.4-44.67,8.67a35.64,35.64,0,0,0-3.86,4.42l.58,1.2c8.2-3.74,15.71-.92,22.63,2.59,16.73,8.49,38.43.11,50.13-11.64,15.12,5.93,31-.77,37.39-17.53,3.55-9.35,2.36-19,1.47-28.61-.06-.63-.69-1.21-1.43-2.43-.6,1.59-.92,2.47-1.26,3.35-3.62,9.25-7.74,17.91-18.08,21.78C91.3,140.49,87.68,150.35,84,160Zm-.09,7.54-1.5-.16c-.3,1.39-.93,2.81-.84,4.18.75,11.66,5.2,22.24,11.13,31.94,15.36,25.12,38.34,39.4,67.26,43.25A87.5,87.5,0,0,0,214.9,236c21.67-12.11,36.59-30.09,42.7-54.55,7.7-30.82.37-58-21-81.24C222.11,84.38,203.45,76,182.48,72.84c-19.55-3-37.88,1.54-55.37,10-1.71.83-2.75,3.07-4.1,4.66,7.8-1.27,14.63-3.44,21.52-5.39,21.23-6,42-4.45,61.51,5.73,19.24,10,34.23,24.52,41.82,45.58s6.35,41.77-4,61.37C234,213.55,219,226.62,198.53,233.79a82.55,82.55,0,0,1-51.89,1.55c-16.79-4.91-31.35-13.8-42.58-27.34-9.41-11.35-18.32-23.14-19.25-38.8C84.78,168.63,84.24,168.09,83.93,167.53Zm-24-31.05c-1,8.79,7.5,15.42,14.7,15.52a15,15,0,0,0,15-14.72c.2-8.54-6-15.29-14.19-15.44C66.85,121.69,60,128.18,59.89,136.48Z"/><path class="cls-2" d="M83.93,167.53c.31.56.85,1.1.88,1.67.93,15.66,9.84,27.45,19.25,38.8,11.23,13.54,25.79,22.43,42.58,27.34a82.55,82.55,0,0,0,51.89-1.55c20.43-7.17,35.47-20.24,45.34-38.95,10.34-19.6,11.6-40.29,4-61.37S225.28,97.94,206,87.89c-19.51-10.18-40.28-11.76-61.51-5.73-6.89,2-13.72,4.12-21.52,5.39,1.35-1.59,2.39-3.83,4.1-4.66,17.49-8.51,35.82-13,55.37-10,21,3.2,39.63,11.54,54.13,27.32,21.36,23.22,28.69,50.42,21,81.24-6.11,24.46-21,42.44-42.7,54.55A87.5,87.5,0,0,1,160,246.74c-28.92-3.85-51.9-18.13-67.26-43.25-5.93-9.7-10.38-20.28-11.13-31.94-.09-1.37.54-2.79.84-4.18Z"/><path class="cls-2" d="M84,159.91c-11.7,11.75-33.4,20.13-50.13,11.64C26.9,168,19.39,165.22,11.19,169l-.58-1.2a35.64,35.64,0,0,1,3.86-4.42c13.28-11.07,28.4-12.62,44.67-8.67,8.24,2,16.58,3.56,24.88,5.32Z"/><path class="cls-2" d="M84,160c3.66-9.64,7.28-19.5,18-23.52,10.34-3.87,14.46-12.53,18.08-21.78.34-.88.66-1.76,1.26-3.35.74,1.22,1.37,1.8,1.43,2.43.89,9.61,2.08,19.26-1.47,28.61C115,159.14,99.07,165.84,84,159.91Z"/><path d="M59.89,136.48c.06-8.3,7-14.79,15.55-14.64,8.2.15,14.39,6.9,14.19,15.44a15,15,0,0,1-15,14.72C67.39,151.9,58.86,145.27,59.89,136.48Z"/></svg>