<svg id="Layer_1" data-name="Layer 1" xmlns="http://www.w3.org/2000/svg" viewBox="0 0 299 298"><defs><style>.cls-1{fill:#008a2e;}</style></defs><path class="cls-1" d="M83.93,167.53c.31.56.85,1.1.88,1.67.93,15.66,9.84,27.45,19.25,38.8,11.23,13.54,25.79,22.43,42.58,27.34a82.55,82.55,0,0,0,51.89-1.55c20.43-7.17,35.47-20.24,45.34-38.95,10.34-19.6,11.6-40.29,4-61.37S225.28,97.94,206,87.89c-19.51-10.18-40.28-11.76-61.51-5.73-6.89,2-13.72,4.12-21.52,5.39,1.35-1.59,2.39-3.83,4.1-4.66,17.49-8.51,35.82-13,55.37-10,21,3.2,39.63,11.54,54.13,27.32,21.36,23.22,28.69,50.42,21,81.24-6.11,24.46-21,42.44-42.7,54.55A87.5,87.5,0,0,1,160,246.74c-28.92-3.85-51.9-18.13-67.26-43.25-5.93-9.7-10.38-20.28-11.13-31.94-.09-1.37.54-2.79.84-4.18Z"/><path class="cls-1" d="M84,159.91c-11.7,11.75-33.4,20.13-50.13,11.64C26.9,168,19.39,165.22,11.19,169l-.58-1.2a35.64,35.64,0,0,1,3.86-4.42c13.28-11.07,28.4-12.62,44.67-8.67,8.24,2,16.58,3.56,24.88,5.32Z"/><path class="cls-1" d="M84,160c3.66-9.64,7.28-19.5,18-23.52,10.34-3.87,14.46-12.53,18.08-21.78.34-.88.66-1.76,1.26-3.35.74,1.22,1.37,1.8,1.43,2.43.89,9.61,2.08,19.26-1.47,28.61C115,159.14,99.07,165.84,84,159.91Z"/><path d="M59.89,136.48c.06-8.3,7-14.79,15.55-14.64,8.2.15,14.39,6.9,14.19,15.44a15,15,0,0,1-15,14.72C67.39,151.9,58.86,145.27,59.89,136.48Z"/></svg>